<svg xmlns="http://www.w3.org/2000/svg" viewBox="0 0 448.261677 458.150937" role="img" aria-labelledby="title desc">
  <title id="title">LinxISA logo</title>
  <desc id="desc">LinxISA mark: original silhouette with semiconductor-style technical detailing.</desc>
  <defs>
    <style>
      .mark { fill: #E30909; }
      /* Subtle technical detailing: keep the silhouette dominant and add a routed-trace feel. */
      .trace { fill: none; stroke: #FFFFFF; stroke-width: 6; opacity: 0.45; }
      .trace2 { fill: none; stroke: #FFFFFF; stroke-width: 4; opacity: 0.28; }
      .pad { fill: #FFFFFF; opacity: 0.55; }
      .pad2 { fill: #FFFFFF; opacity: 0.78; }
    </style>

    <!-- Clip to the exact silhouette so technical lines never change the outer shape. -->
    <clipPath id="mark-clip">
      <g transform="translate(-22.015775,484.666817) scale(1,-1)">
        <path d="M229 484 c-4 -1 -13 -3 -19 -4 -7 -1 -13 -2 -14 -3 -1 -1 -6 -2 -11 -3 -8 -2 -22 -7 -26 -9 -1 -1 -5 -2 -8 -3 -26 -9 -74 -41 -105 -71 -19 -18 -26 -26 -24 -28 2 -1 9 2 16 6 10 5 37 19 42 20 2 1 5 2 6 3 4 2 20 8 29 11 16 5 32 10 37 11 2 1 8 2 12 3 48 12 112 13 160 3 23 -6 45 -13 48 -16 3 -4 1 -8 -12 -19 -4 -4 -10 -9 -13 -10 -3 -2 -7 -4 -8 -6 -9 -5 -39 -19 -54 -23 -31 -10 -82 -21 -115 -24 -7 -1 -15 -2 -17 -2 -8 -2 -46 -3 -83 -3 -19 0 -36 -1 -36 -1 -4 -2 4 -9 15 -12 4 -1 12 -4 19 -6 6 -2 17 -5 23 -7 13 -3 15 -4 15 -7 0 -2 -9 -14 -20 -27 -49 -59 -59 -97 -36 -147 7 -15 11 -13 14 5 2 14 7 32 11 39 1 3 2 5 2 5 0 2 8 20 15 35 18 35 22 48 23 73 0 19 0 18 14 16 21 -4 37 -5 70 -5 17 0 32 -1 33 -1 1 -1 -2 -5 -8 -9 -29 -21 -67 -63 -84 -91 -14 -23 -20 -38 -25 -64 -2 -9 -1 -34 2 -43 7 -25 26 -43 45 -43 15 -1 20 4 13 12 -3 4 -6 12 -6 18 0 6 4 27 7 33 0 2 2 5 2 8 2 8 11 28 19 41 2 3 5 7 6 9 1 1 5 8 10 15 11 15 11 15 18 3 8 -14 19 -33 24 -40 2 -3 7 -9 9 -13 11 -16 35 -42 48 -52 12 -9 30 -19 41 -22 9 -2 33 -2 41 0 21 7 47 26 45 33 -1 2 -3 2 -14 2 -17 0 -28 2 -41 9 -40 20 -70 62 -93 125 -1 5 -3 11 -4 13 0 2 -2 9 -3 16 -3 13 -5 42 -3 46 2 3 8 5 22 9 5 1 14 4 20 6 6 2 13 5 16 6 22 8 63 35 85 56 15 14 38 43 45 56 4 8 2 9 -23 21 -20 10 -27 13 -46 21 -20 8 -52 17 -84 23 -16 3 -18 3 -48 4 -25 0 -34 0 -39 -1z"/>
        <path d="M220 408 c-28 -4 -54 -32 -45 -49 14 -25 65 -16 85 14 5 8 5 19 1 24 -8 10 -22 14 -41 11z"/>
        <path d="M436 313 c-10 -6 -30 -22 -38 -31 -10 -12 -20 -29 -23 -39 0 -2 -1 -6 -2 -9 -2 -6 -2 -9 -2 -53 -1 -58 -2 -56 21 -27 15 18 25 35 27 45 1 3 3 8 3 11 1 2 2 11 3 20 2 21 6 48 9 56 1 3 2 7 3 9 0 1 2 5 3 8 5 9 3 14 -4 10z"/>
      </g>
    </clipPath>
  </defs>

  <!-- Base silhouette (preserves the original logo shape). -->
  <g transform="translate(-22.015775,484.666817) scale(1,-1)" class="mark">
    <path d="M229 484 c-4 -1 -13 -3 -19 -4 -7 -1 -13 -2 -14 -3 -1 -1 -6 -2 -11 -3 -8 -2 -22 -7 -26 -9 -1 -1 -5 -2 -8 -3 -26 -9 -74 -41 -105 -71 -19 -18 -26 -26 -24 -28 2 -1 9 2 16 6 10 5 37 19 42 20 2 1 5 2 6 3 4 2 20 8 29 11 16 5 32 10 37 11 2 1 8 2 12 3 48 12 112 13 160 3 23 -6 45 -13 48 -16 3 -4 1 -8 -12 -19 -4 -4 -10 -9 -13 -10 -3 -2 -7 -4 -8 -6 -9 -5 -39 -19 -54 -23 -31 -10 -82 -21 -115 -24 -7 -1 -15 -2 -17 -2 -8 -2 -46 -3 -83 -3 -19 0 -36 -1 -36 -1 -4 -2 4 -9 15 -12 4 -1 12 -4 19 -6 6 -2 17 -5 23 -7 13 -3 15 -4 15 -7 0 -2 -9 -14 -20 -27 -49 -59 -59 -97 -36 -147 7 -15 11 -13 14 5 2 14 7 32 11 39 1 3 2 5 2 5 0 2 8 20 15 35 18 35 22 48 23 73 0 19 0 18 14 16 21 -4 37 -5 70 -5 17 0 32 -1 33 -1 1 -1 -2 -5 -8 -9 -29 -21 -67 -63 -84 -91 -14 -23 -20 -38 -25 -64 -2 -9 -1 -34 2 -43 7 -25 26 -43 45 -43 15 -1 20 4 13 12 -3 4 -6 12 -6 18 0 6 4 27 7 33 0 2 2 5 2 8 2 8 11 28 19 41 2 3 5 7 6 9 1 1 5 8 10 15 11 15 11 15 18 3 8 -14 19 -33 24 -40 2 -3 7 -9 9 -13 11 -16 35 -42 48 -52 12 -9 30 -19 41 -22 9 -2 33 -2 41 0 21 7 47 26 45 33 -1 2 -3 2 -14 2 -17 0 -28 2 -41 9 -40 20 -70 62 -93 125 -1 5 -3 11 -4 13 0 2 -2 9 -3 16 -3 13 -5 42 -3 46 2 3 8 5 22 9 5 1 14 4 20 6 6 2 13 5 16 6 22 8 63 35 85 56 15 14 38 43 45 56 4 8 2 9 -23 21 -20 10 -27 13 -46 21 -20 8 -52 17 -84 23 -16 3 -18 3 -48 4 -25 0 -34 0 -39 -1z"/>
    <path d="M220 408 c-28 -4 -54 -32 -45 -49 14 -25 65 -16 85 14 5 8 5 19 1 24 -8 10 -22 14 -41 11z"/>
    <path d="M436 313 c-10 -6 -30 -22 -38 -31 -10 -12 -20 -29 -23 -39 0 -2 -1 -6 -2 -9 -2 -6 -2 -9 -2 -53 -1 -58 -2 -56 21 -27 15 18 25 35 27 45 1 3 3 8 3 11 1 2 2 11 3 20 2 21 6 48 9 56 1 3 2 7 3 9 0 1 2 5 3 8 5 9 3 14 -4 10z"/>
  </g>

  <!-- Semiconductor-style overlay: traces and pads clipped to the silhouette. -->
  <g clip-path="url(#mark-clip)" stroke-linecap="round" stroke-linejoin="round">
    <!-- Routed traces: mostly straight segments with gentle 45-degree turns. -->
    <path class="trace" d="M66 172 L138 156 L230 156 L316 144"/>
    <path class="trace2" d="M88 258 L160 242 L236 242 L292 252"/>
    <path class="trace2" d="M116 338 L160 312 L214 294"/>
    <path class="trace" d="M258 292 L322 312 L374 350"/>
    <path class="trace2" d="M246 382 L310 406 L388 432"/>

    <!-- Via pads / nodes. -->
    <circle class="pad2" cx="66" cy="172" r="5.5"/>
    <circle class="pad" cx="138" cy="156" r="4.2"/>
    <circle class="pad" cx="230" cy="156" r="4.2"/>
    <circle class="pad2" cx="316" cy="144" r="5.0"/>

    <circle class="pad" cx="88" cy="258" r="4.6"/>
    <circle class="pad2" cx="160" cy="242" r="4.2"/>
    <circle class="pad" cx="236" cy="242" r="4.0"/>
    <circle class="pad2" cx="292" cy="252" r="4.8"/>

    <circle class="pad2" cx="116" cy="338" r="4.2"/>
    <circle class="pad" cx="160" cy="312" r="3.8"/>
    <circle class="pad2" cx="214" cy="294" r="4.2"/>

    <circle class="pad2" cx="258" cy="292" r="4.2"/>
    <circle class="pad" cx="322" cy="312" r="3.9"/>
    <circle class="pad2" cx="374" cy="350" r="4.6"/>

    <circle class="pad" cx="246" cy="382" r="3.9"/>
    <circle class="pad2" cx="310" cy="406" r="4.3"/>
    <circle class="pad2" cx="388" cy="432" r="5.0"/>

    <!-- Small SMD pads (subtle, inside the clip). -->
    <rect class="pad" x="196" y="150" width="22" height="10" rx="2"/>
    <rect class="pad" x="244" y="238" width="18" height="9" rx="2"/>
  </g>
</svg>
